<?xml version="1.0" encoding="utf-8" ?>
<svg baseProfile="full" height="512px" version="1.1" viewBox="0 0 512 512" width="512px" xmlns="http://www.w3.org/2000/svg" xmlns:ev="http://www.w3.org/2001/xml-events" xmlns:xlink="http://www.w3.org/1999/xlink"><defs /><circle cx="256" cy="256" fill="currentColor" r="256" /><path d="M 241,391 L 240,390 L 232,390 L 231,389 L 226,389 L 225,388 L 222,388 L 221,387 L 218,387 L 217,386 L 215,386 L 214,385 L 212,385 L 211,384 L 210,384 L 209,383 L 207,383 L 206,382 L 205,382 L 204,381 L 203,381 L 202,380 L 201,380 L 199,378 L 198,378 L 197,377 L 196,377 L 193,374 L 192,374 L 188,370 L 187,370 L 182,365 L 182,364 L 177,359 L 177,358 L 175,356 L 175,355 L 173,353 L 173,352 L 172,351 L 172,350 L 171,349 L 171,348 L 170,347 L 170,346 L 169,345 L 169,344 L 168,343 L 168,341 L 167,340 L 167,338 L 166,337 L 166,335 L 165,334 L 165,330 L 164,329 L 164,324 L 163,323 L 163,308 L 164,307 L 164,301 L 165,300 L 165,296 L 166,295 L 166,293 L 167,292 L 167,290 L 168,289 L 168,288 L 169,287 L 169,286 L 170,285 L 170,284 L 171,283 L 171,282 L 173,280 L 173,279 L 176,276 L 176,275 L 183,268 L 184,268 L 188,264 L 189,264 L 191,262 L 192,262 L 193,261 L 194,261 L 196,259 L 197,259 L 198,258 L 199,258 L 200,257 L 201,257 L 202,256 L 204,256 L 205,255 L 206,255 L 207,254 L 209,254 L 210,253 L 211,253 L 212,252 L 214,252 L 215,251 L 217,251 L 218,250 L 219,250 L 220,249 L 222,249 L 223,248 L 226,248 L 227,247 L 229,247 L 230,246 L 232,246 L 233,245 L 235,245 L 236,244 L 239,244 L 240,243 L 242,243 L 243,242 L 246,242 L 247,241 L 249,241 L 250,240 L 253,240 L 254,239 L 256,239 L 257,238 L 260,238 L 261,237 L 263,237 L 264,236 L 267,236 L 268,235 L 270,235 L 271,234 L 273,234 L 274,233 L 275,233 L 276,232 L 278,232 L 279,231 L 280,231 L 281,230 L 282,230 L 284,228 L 285,228 L 287,226 L 288,226 L 294,220 L 294,219 L 295,218 L 295,217 L 296,216 L 296,215 L 297,214 L 297,211 L 298,210 L 298,204 L 297,203 L 297,200 L 296,199 L 296,198 L 295,197 L 295,196 L 294,195 L 294,194 L 286,186 L 285,186 L 283,184 L 282,184 L 281,183 L 279,183 L 278,182 L 277,182 L 276,181 L 273,181 L 272,180 L 267,180 L 266,179 L 247,179 L 246,180 L 240,180 L 239,181 L 236,181 L 235,182 L 232,182 L 231,183 L 229,183 L 228,184 L 227,184 L 226,185 L 224,185 L 223,186 L 222,186 L 221,187 L 220,187 L 219,188 L 218,188 L 217,189 L 216,189 L 215,190 L 214,190 L 212,192 L 211,192 L 209,194 L 208,194 L 206,196 L 205,196 L 201,200 L 200,200 L 189,211 L 188,211 L 162,185 L 162,184 L 154,176 L 154,175 L 156,173 L 157,173 L 166,164 L 167,164 L 171,160 L 172,160 L 175,157 L 176,157 L 178,155 L 179,155 L 181,153 L 182,153 L 184,151 L 185,151 L 186,150 L 187,150 L 188,149 L 189,149 L 190,148 L 191,148 L 192,147 L 193,147 L 194,146 L 195,146 L 196,145 L 197,145 L 198,144 L 199,144 L 200,143 L 202,143 L 203,142 L 204,142 L 205,141 L 207,141 L 208,140 L 210,140 L 211,139 L 213,139 L 214,138 L 216,138 L 217,137 L 220,137 L 221,136 L 225,136 L 226,135 L 230,135 L 231,134 L 237,134 L 238,133 L 251,133 L 252,132 L 261,132 L 262,133 L 273,133 L 274,134 L 280,134 L 281,135 L 285,135 L 286,136 L 289,136 L 290,137 L 293,137 L 294,138 L 296,138 L 297,139 L 299,139 L 300,140 L 301,140 L 302,141 L 304,141 L 305,142 L 306,142 L 307,143 L 308,143 L 310,145 L 311,145 L 312,146 L 313,146 L 314,147 L 315,147 L 317,149 L 318,149 L 321,152 L 322,152 L 327,157 L 328,157 L 332,161 L 332,162 L 336,166 L 336,167 L 339,170 L 339,171 L 340,172 L 340,173 L 342,175 L 342,176 L 343,177 L 343,178 L 344,179 L 344,180 L 345,181 L 345,182 L 346,183 L 346,185 L 347,186 L 347,188 L 348,189 L 348,191 L 349,192 L 349,194 L 350,195 L 350,199 L 351,200 L 351,205 L 352,206 L 352,220 L 351,221 L 351,228 L 350,229 L 350,232 L 349,233 L 349,235 L 348,236 L 348,238 L 347,239 L 347,241 L 346,242 L 346,243 L 345,244 L 345,245 L 343,247 L 343,248 L 341,250 L 341,251 L 329,263 L 328,263 L 326,265 L 325,265 L 323,267 L 322,267 L 321,268 L 320,268 L 318,270 L 317,270 L 316,271 L 315,271 L 314,272 L 312,272 L 311,273 L 310,273 L 309,274 L 308,274 L 307,275 L 305,275 L 304,276 L 303,276 L 302,277 L 300,277 L 299,278 L 297,278 L 296,279 L 295,279 L 294,280 L 292,280 L 291,281 L 289,281 L 288,282 L 286,282 L 285,283 L 283,283 L 282,284 L 280,284 L 279,285 L 277,285 L 276,286 L 274,286 L 273,287 L 271,287 L 270,288 L 268,288 L 267,289 L 265,289 L 264,290 L 262,290 L 261,291 L 258,291 L 257,292 L 255,292 L 254,293 L 252,293 L 251,294 L 249,294 L 248,295 L 246,295 L 245,296 L 243,296 L 242,297 L 240,297 L 239,298 L 238,298 L 237,299 L 235,299 L 234,300 L 233,300 L 232,301 L 231,301 L 230,302 L 229,302 L 227,304 L 226,304 L 219,311 L 219,312 L 218,313 L 218,314 L 217,315 L 217,317 L 216,318 L 216,325 L 217,326 L 217,328 L 218,329 L 218,330 L 219,331 L 219,332 L 226,339 L 227,339 L 229,341 L 230,341 L 231,342 L 232,342 L 233,343 L 235,343 L 236,344 L 238,344 L 239,345 L 244,345 L 245,346 L 265,346 L 266,345 L 271,345 L 272,344 L 275,344 L 276,343 L 278,343 L 279,342 L 280,342 L 281,341 L 282,341 L 283,340 L 284,340 L 285,339 L 286,339 L 287,338 L 288,338 L 290,336 L 291,336 L 294,333 L 295,333 L 305,323 L 305,322 L 307,320 L 314,327 L 314,328 L 326,340 L 326,341 L 338,353 L 338,354 L 339,355 L 339,356 L 330,365 L 329,365 L 325,369 L 324,369 L 321,372 L 320,372 L 318,374 L 317,374 L 316,375 L 315,375 L 313,377 L 312,377 L 311,378 L 310,378 L 309,379 L 308,379 L 307,380 L 305,380 L 304,381 L 303,381 L 302,382 L 300,382 L 299,383 L 298,383 L 297,384 L 295,384 L 294,385 L 292,385 L 291,386 L 288,386 L 287,387 L 285,387 L 284,388 L 280,388 L 279,389 L 275,389 L 274,390 L 266,390 L 265,391 Z" fill="#ffffff" /></svg>